<svg width="24" height="24" viewBox="0 0 24 24" fill="none" xmlns="http://www.w3.org/2000/svg">
<path d="M12 2C10.0222 2 8.08879 2.58649 6.4443 3.6853C4.79981 4.78412 3.51809 6.3459 2.76121 8.17317C2.00433 10.0004 1.8063 12.0111 2.19215 13.9509C2.578 15.8907 3.53041 17.6725 4.92894 19.0711C6.32746 20.4696 8.10929 21.422 10.0491 21.8079C11.9889 22.1937 13.9996 21.9957 15.8268 21.2388C17.6541 20.4819 19.2159 19.2002 20.3147 17.5557C21.4135 15.9112 22 13.9778 22 12C22 10.6868 21.7413 9.38642 21.2388 8.17317C20.7363 6.95991 19.9997 5.85752 19.0711 4.92893C18.1425 4.00035 17.0401 3.26375 15.8268 2.7612C14.6136 2.25866 13.3132 2 12 2V2ZM12 20C10.4178 20 8.87104 19.5308 7.55544 18.6518C6.23985 17.7727 5.21447 16.5233 4.60897 15.0615C4.00347 13.5997 3.84504 11.9911 4.15372 10.4393C4.4624 8.88743 5.22433 7.46197 6.34315 6.34315C7.46197 5.22433 8.88743 4.4624 10.4393 4.15372C11.9911 3.84504 13.5997 4.00346 15.0615 4.60896C16.5233 5.21447 17.7727 6.23984 18.6518 7.55544C19.5308 8.87103 20 10.4177 20 12C20 14.1217 19.1572 16.1566 17.6569 17.6569C16.1566 19.1571 14.1217 20 12 20V20Z" fill="#81999C"/>
<path d="M14.71 9.29189C14.617 9.19816 14.5064 9.12377 14.3846 9.073C14.2627 9.02223 14.132 8.99609 14 8.99609C13.868 8.99609 13.7373 9.02223 13.6154 9.073C13.4936 9.12377 13.383 9.19816 13.29 9.29189L12 10.5919L10.71 9.29189C10.5217 9.10359 10.2663 8.9978 10 8.9978C9.7337 8.9978 9.4783 9.10359 9.29 9.29189C9.1017 9.4802 8.99591 9.73559 8.99591 10.0019C8.99591 10.2682 9.1017 10.5236 9.29 10.7119L10.59 12.0019L9.29 13.2919C9.19627 13.3849 9.12188 13.4955 9.07111 13.6173C9.02034 13.7392 8.9942 13.8699 8.9942 14.0019C8.9942 14.1339 9.02034 14.2646 9.07111 14.3865C9.12188 14.5083 9.19627 14.6189 9.29 14.7119C9.38296 14.8056 9.49356 14.88 9.61542 14.9308C9.73728 14.9816 9.86799 15.0077 10 15.0077C10.132 15.0077 10.2627 14.9816 10.3846 14.9308C10.5064 14.88 10.617 14.8056 10.71 14.7119L12 13.4119L13.29 14.7119C13.383 14.8056 13.4936 14.88 13.6154 14.9308C13.7373 14.9816 13.868 15.0077 14 15.0077C14.132 15.0077 14.2627 14.9816 14.3846 14.9308C14.5064 14.88 14.617 14.8056 14.71 14.7119C14.8037 14.6189 14.8781 14.5083 14.9289 14.3865C14.9797 14.2646 15.0058 14.1339 15.0058 14.0019C15.0058 13.8699 14.9797 13.7392 14.9289 13.6173C14.8781 13.4955 14.8037 13.3849 14.71 13.2919L13.41 12.0019L14.71 10.7119C14.8037 10.6189 14.8781 10.5083 14.9289 10.3865C14.9797 10.2646 15.0058 10.1339 15.0058 10.0019C15.0058 9.86988 14.9797 9.73917 14.9289 9.61732C14.8781 9.49546 14.8037 9.38486 14.71 9.29189V9.29189Z" fill="#81999C"/>
</svg>
