<svg width="100" height="100" viewBox="0 0 100 100" fill="none" xmlns="http://www.w3.org/2000/svg">
<path d="M24.5474 73.1398C22.5322 71.4801 22.3747 68.4491 24.2071 66.5895L35.1723 55.4617C36.9041 53.7041 39.7361 53.6937 41.4808 55.4384L56.1001 70.0578C58.1914 72.149 57.6949 75.6614 55.1059 77.0911L42.3285 84.147C40.7331 85.028 38.7615 84.8457 37.3547 83.6871L24.5474 73.1398Z" fill="#80DFE8"/>
<path d="M42.5797 77.3221C40.4561 75.6854 40.2542 72.5551 42.1501 70.6592L57.3943 55.415C59.1299 53.6794 61.944 53.6794 63.6797 55.415L78.9238 70.6592C80.8197 72.5551 80.6179 75.6854 78.4942 77.3221L63.2501 89.0711C61.6512 90.3033 59.4227 90.3033 57.8239 89.0711L42.5797 77.3221Z" fill="#80DFE8"/>
<path fill-rule="evenodd" clip-rule="evenodd" d="M65.5302 24.2817C51.1814 15.9975 32.8337 20.9137 24.5494 35.2625C16.2652 49.6113 21.1814 67.959 35.5302 76.2433C42.8605 80.4754 51.224 81.2648 58.7754 79.1072C61.4734 78.3364 64.0632 77.19 66.459 75.6927C68.6989 74.2929 70.7698 72.5861 72.6036 70.5904C74.6796 68.3312 78.194 68.1826 80.4533 70.2586C82.7126 72.3346 82.8612 75.8491 80.7851 78.1084C78.2656 80.8503 75.4206 83.1946 72.3476 85.1151C69.0621 87.1684 65.5165 88.7369 61.8278 89.7908C51.5016 92.7412 40.018 91.6643 29.9746 85.8658C10.3115 74.5132 3.57442 49.3701 14.9269 29.7069C26.2795 10.0438 51.4226 3.30672 71.0858 14.6592C73.7429 16.1934 74.6534 19.5911 73.1192 22.2483C71.5851 24.9055 68.1874 25.8159 65.5302 24.2817Z" fill="#084887"/>
</svg>
