<svg width="52" height="52" viewBox="0 0 52 52" fill="none" xmlns="http://www.w3.org/2000/svg">
<rect x="8.5" y="8.5" width="34.92" height="34.92" rx="17.46" fill="#FFFFFE"/>
<path d="M25.5967 33.3945V22.7305C23.6123 24.2539 22.2764 25.0156 21.5889 25.0156C21.2608 25.0156 20.9678 24.8867 20.71 24.6289C20.46 24.3633 20.335 24.0586 20.335 23.7148C20.335 23.3164 20.46 23.0234 20.71 22.8359C20.96 22.6484 21.4014 22.4062 22.0342 22.1094C22.9795 21.6641 23.7334 21.1953 24.2959 20.7031C24.8662 20.2109 25.3702 19.6602 25.8077 19.0508C26.2452 18.4414 26.5303 18.0664 26.6631 17.9258C26.7959 17.7852 27.0459 17.7148 27.4131 17.7148C27.8272 17.7148 28.1592 17.875 28.4092 18.1953C28.6592 18.5156 28.7842 18.957 28.7842 19.5195V32.9375C28.7842 34.5078 28.2491 35.293 27.1787 35.293C26.7022 35.293 26.3194 35.1328 26.0303 34.8125C25.7412 34.4922 25.5967 34.0195 25.5967 33.3945Z" fill="#0C141C"/>
<rect x="8.5" y="8.5" width="34.92" height="34.92" rx="17.46" stroke="#0C141C" stroke-width="3"/>
</svg>
