<svg width="52" height="52" viewBox="0 0 52 52" fill="none" xmlns="http://www.w3.org/2000/svg">
<path d="M16.3883 21.8186C14.8316 20.2619 14.8316 17.7381 16.3883 16.1814C17.945 14.6247 20.4688 14.6247 22.0255 16.1814C23.5821 17.7381 23.5821 20.2619 22.0255 21.8186C20.4688 23.3753 17.945 23.3753 16.3883 21.8186Z" fill="#0C141C"/>
<path fill-rule="evenodd" clip-rule="evenodd" d="M11.1034 27.1034C6.62804 22.628 6.62803 15.372 11.1034 10.8966C15.5789 6.42115 22.8349 6.42115 27.3103 10.8966C30.3834 13.9696 31.3445 18.3517 30.2005 22.2425L34.7091 26.7511L37.88 23.5802C38.4638 22.9965 39.4102 22.9965 39.994 23.5802L44.9265 28.5127C45.5103 29.0965 45.5103 30.0429 44.9265 30.6267L41.7556 33.7976L44.2219 36.2639C44.8056 36.8476 44.8056 37.7941 44.2219 38.3778L39.994 42.6057C38.6319 43.9678 36.4235 43.9678 35.0615 42.6057L22.4494 29.9936C18.5586 31.1376 14.1765 30.1765 11.1034 27.1034ZM13.2174 13.0105C9.90948 16.3184 9.90948 21.6816 13.2174 24.9895C15.6718 27.4439 19.2603 28.0794 22.3031 26.887C22.8563 26.6702 23.4853 26.8016 23.9054 27.2218L37.1754 40.4917C37.37 40.6863 37.6855 40.6863 37.88 40.4917L41.051 37.3208L38.5847 34.8546C38.0009 34.2708 38.0009 33.3244 38.5847 32.7406L41.7556 29.5697L38.937 26.7511L35.7661 29.922C35.1824 30.5058 34.2359 30.5058 33.6522 29.922L27.4287 23.6985C27.0085 23.2784 26.8771 22.6494 27.0939 22.0962C28.2863 19.0534 27.6508 15.4649 25.1964 13.0105C21.8885 9.70259 16.5253 9.70259 13.2174 13.0105Z" fill="#0C141C"/>
</svg>
