<svg width="52" height="52" viewBox="0 0 52 52" fill="none" xmlns="http://www.w3.org/2000/svg">
<path d="M35.5562 19.456L37.3749 17.7163L37.3735 17.3325H31.0864L26.6052 28.5128L21.5075 17.3339H14.9128V17.7163L17.0377 20.2743C17.1404 20.3668 17.2199 20.4822 17.2696 20.6111C17.3194 20.7401 17.338 20.879 17.3241 21.0165V31.0722C17.3546 31.251 17.3426 31.4344 17.2892 31.6077C17.2358 31.7809 17.1423 31.9392 17.0165 32.0698L14.6249 34.9693V35.3502H21.4003V34.9693L19.0102 32.0698C18.8833 31.9393 18.7877 31.7817 18.7308 31.6089C18.6738 31.4361 18.6569 31.2526 18.6814 31.0722V22.3766L24.6285 35.3516H25.3199L30.4275 22.3766V32.7188C30.4275 32.9925 30.4275 33.0461 30.2469 33.2267L28.4084 35.0102V35.3911H37.3298V35.0102L35.5562 33.2691C35.4796 33.2105 35.4203 33.1321 35.3847 33.0424C35.3492 32.9526 35.3387 32.8549 35.3545 32.7597V19.9653C35.3387 19.8701 35.3492 19.7724 35.3847 19.6827C35.4203 19.5929 35.4796 19.5146 35.5562 19.456Z" fill="#0C141C"/>
<path fill-rule="evenodd" clip-rule="evenodd" d="M37.3928 6.1374C29.8819 5.29795 22.118 5.29795 14.6071 6.1374C10.2477 6.62464 6.72827 10.0588 6.21574 14.441C5.31757 22.1203 5.31757 29.8781 6.21574 37.5574C6.72827 41.9396 10.2477 45.3738 14.6071 45.861C22.118 46.7004 29.8819 46.7004 37.3928 45.861C41.7523 45.3738 45.2717 41.9396 45.7842 37.5574C46.6824 29.8781 46.6824 22.1203 45.7842 14.441C45.2717 10.0588 41.7523 6.62464 37.3928 6.1374ZM14.9681 9.36729C22.2391 8.55465 29.7608 8.55465 37.0318 9.36729C39.9137 9.68939 42.2223 11.9636 42.5562 14.8185C43.425 22.247 43.425 29.7514 42.5562 37.1799C42.2223 40.0349 39.9137 42.309 37.0318 42.6311C29.7608 43.4437 22.2391 43.4437 14.9681 42.6311C12.0862 42.309 9.77765 40.0349 9.44373 37.1799C8.57491 29.7514 8.57491 22.247 9.44373 14.8185C9.77765 11.9636 12.0862 9.68939 14.9681 9.36729Z" fill="#0C141C"/>
</svg>
