<svg width="52" height="52" viewBox="0 0 52 52" fill="none" xmlns="http://www.w3.org/2000/svg">
<path fill-rule="evenodd" clip-rule="evenodd" d="M10.0215 33.0342C5.15116 21.0796 13.9459 8 26.8545 8H27.5509C37.2048 8 45.0308 15.826 45.0308 25.4799C45.0308 36.2283 36.3175 44.9417 25.569 44.9417H8.62509C7.93553 44.9417 7.32106 44.5065 7.0922 43.856C6.86334 43.2055 7.06993 42.4814 7.60758 42.0497L11.8791 38.6192C12.0659 38.4692 12.132 38.2144 12.0416 37.9925L10.0215 33.0342ZM26.8545 11.25C16.254 11.25 9.03181 21.9909 13.0313 31.808L15.0514 36.7663C15.6841 38.3192 15.2216 40.1033 13.9142 41.1532L13.2437 41.6917H25.569C34.5225 41.6917 41.7808 34.4334 41.7808 25.4799C41.7808 17.6209 35.4099 11.25 27.5509 11.25H26.8545Z" fill="#0C141C"/>
</svg>
