<svg width="52" height="52" viewBox="0 0 52 52" fill="none" xmlns="http://www.w3.org/2000/svg">
<rect x="8.5" y="8.5" width="34.92" height="34.92" rx="17.46" fill="#FFFFFE"/>
<path d="M27.2256 33.5117V31.332H21.3428C20.6006 31.332 20.042 31.1641 19.667 30.8281C19.2998 30.4922 19.1162 30.0352 19.1162 29.457C19.1162 29.3086 19.1436 29.1602 19.1983 29.0117C19.253 28.8555 19.335 28.6953 19.4444 28.5312C19.5537 28.3594 19.667 28.1953 19.7842 28.0391C19.9014 27.8828 20.0459 27.6914 20.2178 27.4648L26.4287 19.1562C26.835 18.6094 27.167 18.2148 27.4248 17.9727C27.6905 17.7227 28.0069 17.5977 28.3741 17.5977C29.5616 17.5977 30.1553 18.2773 30.1553 19.6367V28.707H30.6592C31.2608 28.707 31.7412 28.7891 32.1006 28.9531C32.4678 29.1172 32.6514 29.4766 32.6514 30.0312C32.6514 30.4844 32.503 30.8164 32.2061 31.0273C31.9092 31.2305 31.4639 31.332 30.8702 31.332H30.1553V33.5117C30.1553 34.1133 30.0225 34.5625 29.7569 34.8594C29.4912 35.1484 29.1358 35.293 28.6905 35.293C28.253 35.293 27.8975 35.1445 27.6241 34.8477C27.3584 34.543 27.2256 34.0977 27.2256 33.5117ZM22.1866 28.707H27.2256V21.8984L22.1866 28.707Z" fill="#0C141C"/>
<rect x="8.5" y="8.5" width="34.92" height="34.92" rx="17.46" stroke="#0C141C" stroke-width="3"/>
</svg>
