<svg width="52" height="52" viewBox="0 0 52 52" fill="none" xmlns="http://www.w3.org/2000/svg">
<path d="M28.3111 31.4583C27.1145 31.4583 26.1444 32.4284 26.1444 33.625C26.1444 34.8216 27.1145 35.7917 28.3111 35.7917C29.5077 35.7917 30.4778 34.8216 30.4778 33.625C30.4778 32.4284 29.5077 31.4583 28.3111 31.4583Z" fill="#0C141C"/>
<path d="M21.8111 35.7917C20.6145 35.7917 19.6444 36.7617 19.6444 37.9583C19.6444 39.155 20.6145 40.125 21.8111 40.125C23.0077 40.125 23.9778 39.155 23.9778 37.9583C23.9778 36.7617 23.0077 35.7917 21.8111 35.7917Z" fill="#0C141C"/>
<path fill-rule="evenodd" clip-rule="evenodd" d="M31.5463 6.00001L31.5398 6H20.749L20.7426 6.00001H18.5611C17.6636 6.00001 16.9361 6.72755 16.9361 7.62501C16.9361 8.52248 17.6636 9.25001 18.5611 9.25001H19.124V20.2719C19.124 23.423 18.1763 26.5013 16.404 29.1068L9.70074 38.9612C7.9985 41.4637 9.56766 44.8787 12.5752 45.217C21.5929 46.2315 30.6959 46.2315 39.7136 45.217C42.7212 44.8787 44.2904 41.4637 42.5881 38.9612L35.8849 29.1068C34.1126 26.5013 33.1648 23.423 33.1648 20.2719V9.25001H33.7278C34.6252 9.25001 35.3528 8.52248 35.3528 7.62501C35.3528 6.72755 34.6252 6.00001 33.7278 6.00001H31.5463ZM12.9386 41.9874C21.7148 42.9747 30.5741 42.9747 39.3503 41.9874C39.9264 41.9226 40.2269 41.2685 39.9009 40.7891L33.1977 30.9347C32.7204 30.2331 32.2927 29.5031 31.9162 28.75H20.3727C19.9961 29.5031 19.5684 30.2331 19.0912 30.9347L12.388 40.7891C12.0619 41.2685 12.3625 41.9226 12.9386 41.9874ZM21.6389 25.5H30.65C30.165 23.8094 29.9148 22.0502 29.9148 20.2719V9.25L22.374 9.25001V20.2719C22.374 22.0503 22.1239 23.8094 21.6389 25.5Z" fill="#0C141C"/>
</svg>
