<svg width="52" height="52" viewBox="0 0 52 52" fill="none" xmlns="http://www.w3.org/2000/svg">
<rect x="8.5" y="8.5" width="34.92" height="34.92" rx="17.46" fill="#FFFFFE"/>
<path d="M27.6488 20.8477C27.2433 20.4161 27.2433 19.7163 27.6488 19.2847C28.0543 18.853 28.7119 18.853 29.1174 19.2847L34.6559 25.1794C35.0614 25.611 35.0614 26.3108 34.6559 26.7425L29.1174 32.6372C28.7119 33.0688 28.0543 33.0688 27.6488 32.6372C27.2433 32.2056 27.2433 31.5058 27.6488 31.0741L31.4145 27.0662H17.9985C17.425 27.0662 16.96 26.5714 16.96 25.9609C16.96 25.3505 17.425 24.8557 17.9985 24.8557H31.4145L27.6488 20.8477Z" fill="black"/>
<rect x="8.5" y="8.5" width="34.92" height="34.92" rx="17.46" stroke="#0C141C" stroke-width="3"/>
</svg>
