<svg width="52" height="52" viewBox="0 0 52 52" fill="none" xmlns="http://www.w3.org/2000/svg">
<path fill-rule="evenodd" clip-rule="evenodd" d="M37.3928 6.1374C29.8819 5.29795 22.118 5.29795 14.6071 6.1374C10.2477 6.62464 6.72827 10.0588 6.21574 14.441C5.31757 22.1203 5.31757 29.8781 6.21574 37.5574C6.72827 41.9396 10.2477 45.3738 14.6071 45.861C22.118 46.7004 29.8819 46.7004 37.3928 45.861C41.7523 45.3738 45.2717 41.9396 45.7842 37.5574C46.6824 29.8781 46.6824 22.1203 45.7842 14.441C45.2717 10.0588 41.7523 6.62464 37.3928 6.1374ZM14.9681 9.36729C22.2391 8.55465 29.7608 8.55465 37.0318 9.36729C39.9137 9.68939 42.2223 11.9636 42.5562 14.8185C43.425 22.247 43.425 29.7514 42.5562 37.1799C42.2223 40.0349 39.9137 42.309 37.0318 42.6311C29.7608 43.4437 22.2391 43.4437 14.9681 42.6311C12.0862 42.309 9.77765 40.0349 9.44373 37.1799C8.57491 29.7514 8.57491 22.247 9.44373 14.8185C9.77765 11.9636 12.0862 9.68939 14.9681 9.36729Z" fill="black"/>
<path d="M18.2667 15C17.0148 15 16 16.0873 16 17.4286C16 18.7698 17.0148 19.8571 18.2667 19.8571C19.5185 19.8571 20.5333 18.7698 20.5333 17.4286C20.5333 16.0873 19.5185 15 18.2667 15Z" fill="black"/>
<path d="M16.1333 21.8571C16.0597 21.8571 16 21.9211 16 22V36.8571C16 36.936 16.0597 37 16.1333 37H20.4C20.4736 37 20.5333 36.936 20.5333 36.8571V22C20.5333 21.9211 20.4736 21.8571 20.4 21.8571H16.1333Z" fill="black"/>
<path d="M23.0667 21.8571C22.993 21.8571 22.9333 21.9211 22.9333 22V36.8571C22.9333 36.936 22.993 37 23.0667 37H27.3333C27.407 37 27.4667 36.936 27.4667 36.8571V28.8571C27.4667 28.2888 27.6774 27.7438 28.0525 27.3419C28.4275 26.9401 28.9362 26.7143 29.4667 26.7143C29.9971 26.7143 30.5058 26.9401 30.8809 27.3419C31.256 27.7438 31.4667 28.2888 31.4667 28.8571V36.8571C31.4667 36.936 31.5264 37 31.6 37H35.8667C35.9403 37 36 36.936 36 36.8571V27.006C36 24.2326 33.7487 22.0629 31.1732 22.3137C30.3789 22.3911 29.5936 22.6026 28.8602 22.9394L27.4667 23.5793V22C27.4667 21.9211 27.407 21.8571 27.3333 21.8571H23.0667Z" fill="black"/>
</svg>
