<svg width="52" height="52" viewBox="0 0 52 52" fill="none" xmlns="http://www.w3.org/2000/svg">
<path fill-rule="evenodd" clip-rule="evenodd" d="M7 20.3562C7 14.5052 12.1331 10 18.1583 10C21.2642 10 23.9972 11.4563 25.9583 13.3406C27.9195 11.4563 30.6525 10 33.7583 10C39.7835 10 44.9167 14.5052 44.9167 20.3562C44.9167 24.3643 43.2074 27.889 40.8394 30.8683C38.4754 33.8426 35.3832 36.3668 32.4225 38.4179C31.2917 39.2014 30.1476 39.9241 29.1006 40.4573C28.1174 40.958 26.9869 41.4167 25.9583 41.4167C24.9297 41.4167 23.7992 40.958 22.8161 40.4573C21.769 39.9241 20.625 39.2014 19.4942 38.4179C16.5334 36.3668 13.4412 33.8426 11.0773 30.8683C8.70924 27.889 7 24.3643 7 20.3562ZM18.1583 13.25C13.6533 13.25 10.25 16.563 10.25 20.3562C10.25 23.3971 11.5409 26.2283 13.6215 28.8461C15.7063 31.4691 18.5113 33.7833 21.3449 35.7464C22.4172 36.4892 23.4271 37.1213 24.291 37.5612C25.2187 38.0337 25.7561 38.1667 25.9583 38.1667C26.1606 38.1667 26.6979 38.0337 27.6257 37.5612C28.4896 37.1213 29.4995 36.4892 30.5717 35.7464C33.4053 33.7833 36.2104 31.4691 38.2951 28.8461C40.3758 26.2283 41.6667 23.3971 41.6667 20.3562C41.6667 16.563 38.2634 13.25 33.7583 13.25C31.171 13.25 28.7551 14.7957 27.2466 16.7577C26.939 17.1577 26.463 17.3922 25.9583 17.3922C25.4537 17.3922 24.9777 17.1577 24.6701 16.7577C23.1616 14.7957 20.7457 13.25 18.1583 13.25Z" fill="#0C141C"/>
</svg>
