<svg width="52" height="52" viewBox="0 0 52 52" fill="none" xmlns="http://www.w3.org/2000/svg">
<rect x="8.5" y="8.5" width="34.92" height="34.92" rx="17.46" fill="#FFFFFE"/>
<path d="M24.1787 32.2344H30.2959C30.9053 32.2344 31.3702 32.3594 31.6905 32.6094C32.0108 32.8594 32.1709 33.1992 32.1709 33.6289C32.1709 34.0117 32.042 34.3359 31.7842 34.6016C31.5342 34.8672 31.1514 35 30.6358 35H22.0108C21.4248 35 20.9678 34.8398 20.6397 34.5195C20.3116 34.1914 20.1475 33.8086 20.1475 33.3711C20.1475 33.0898 20.253 32.7188 20.4639 32.2578C20.6748 31.7891 20.9053 31.4219 21.1553 31.1562C22.1944 30.0781 23.1319 29.1562 23.9678 28.3906C24.8037 27.6172 25.4014 27.1094 25.7608 26.8672C26.4014 26.4141 26.9327 25.9609 27.3545 25.5078C27.7842 25.0469 28.1084 24.5781 28.3272 24.1016C28.5537 23.6172 28.667 23.1445 28.667 22.6836C28.667 22.1836 28.5459 21.7383 28.3037 21.3477C28.0694 20.9492 27.7452 20.6406 27.3311 20.4219C26.9248 20.2031 26.4795 20.0938 25.9952 20.0938C24.9717 20.0938 24.167 20.543 23.5811 21.4414C23.503 21.5586 23.3702 21.8789 23.1827 22.4023C23.003 22.9258 22.7959 23.3281 22.5616 23.6094C22.335 23.8906 21.9991 24.0312 21.5537 24.0312C21.1631 24.0312 20.8389 23.9023 20.5811 23.6445C20.3233 23.3867 20.1944 23.0352 20.1944 22.5898C20.1944 22.0508 20.3155 21.4883 20.5577 20.9023C20.7998 20.3164 21.1592 19.7852 21.6358 19.3086C22.1202 18.832 22.7295 18.4492 23.4639 18.1602C24.2061 17.8633 25.0733 17.7148 26.0655 17.7148C27.2608 17.7148 28.2803 17.9023 29.1241 18.2773C29.6709 18.5273 30.1514 18.8711 30.5655 19.3086C30.9795 19.7461 31.2998 20.2539 31.5264 20.832C31.7608 21.4023 31.878 21.9961 31.878 22.6133C31.878 23.582 31.6358 24.4648 31.1514 25.2617C30.6748 26.0508 30.1866 26.6719 29.6866 27.125C29.1866 27.5703 28.3467 28.2734 27.167 29.2344C25.9952 30.1953 25.1905 30.9414 24.753 31.4727C24.5655 31.6836 24.3741 31.9375 24.1787 32.2344Z" fill="#0C141C"/>
<rect x="8.5" y="8.5" width="34.92" height="34.92" rx="17.46" stroke="#0C141C" stroke-width="3"/>
</svg>
