<svg width="52" height="52" viewBox="0 0 52 52" fill="none" xmlns="http://www.w3.org/2000/svg">
<path fill-rule="evenodd" clip-rule="evenodd" d="M37.3928 6.1374C29.8819 5.29795 22.118 5.29795 14.6071 6.1374C10.2477 6.62464 6.72827 10.0588 6.21574 14.441C5.31757 22.1203 5.31757 29.8781 6.21574 37.5574C6.72827 41.9396 10.2477 45.3738 14.6071 45.861C22.118 46.7004 29.8819 46.7004 37.3928 45.861C41.7523 45.3738 45.2717 41.9396 45.7842 37.5574C46.6824 29.8781 46.6824 22.1203 45.7842 14.441C45.2717 10.0588 41.7523 6.62464 37.3928 6.1374ZM14.9681 9.36729C22.2391 8.55465 29.7608 8.55465 37.0318 9.36729C39.9137 9.68939 42.2223 11.9636 42.5562 14.8185C43.425 22.247 43.425 29.7514 42.5562 37.1799C42.2223 40.0349 39.9137 42.309 37.0318 42.6311C29.7608 43.4437 22.2391 43.4437 14.9681 42.6311C12.0862 42.309 9.77765 40.0349 9.44373 37.1799C8.57491 29.7514 8.57491 22.247 9.44373 14.8185C9.77765 11.9636 12.0862 9.68939 14.9681 9.36729Z" fill="black"/>
<path d="M37.9768 19.4624C38.0481 19.3731 37.9428 19.2578 37.8287 19.2975C37.0182 19.5798 36.1711 19.7702 35.3071 19.8641C36.2692 19.3476 37.0116 18.5615 37.4232 17.6308C37.4652 17.536 37.3499 17.4513 37.2505 17.5006C36.3564 17.9443 35.392 18.2638 34.3903 18.4478C34.3483 18.4555 34.3051 18.4427 34.2757 18.4148C33.5239 17.7021 32.5344 17.2275 31.4556 17.0635C30.3542 16.8961 29.222 17.0619 28.2368 17.5349C27.2515 18.0079 26.4688 18.7613 26.0115 19.6771C25.5766 20.5478 25.4593 21.5184 25.6738 22.4505C25.6904 22.5228 25.6274 22.5911 25.5454 22.5865C23.5963 22.4777 21.692 22.0119 19.9497 21.2171C18.2118 20.4244 16.6729 19.3215 15.4266 17.9765C15.3713 17.9169 15.2665 17.9246 15.2262 17.9933C14.8384 18.6545 14.6353 19.3915 14.6359 20.1405C14.6343 20.8861 14.8379 21.6204 15.2286 22.2782C15.6193 22.9359 16.185 23.4967 16.8752 23.9105C16.1432 23.8926 15.4255 23.73 14.7728 23.4352C14.6886 23.3972 14.5877 23.4513 14.5921 23.5358C14.643 24.5189 15.0447 25.5058 15.7399 26.2631C16.4798 27.0689 17.5068 27.6204 18.6471 27.8242C18.2081 27.9442 17.7524 28.0075 17.2936 28.0121C17.0439 28.0095 16.7947 27.9929 16.5474 27.9626C16.4557 27.9513 16.3808 28.0296 16.4129 28.1075C16.753 28.934 17.3539 29.655 18.1439 30.1814C18.9885 30.7442 20.0074 31.0564 21.0587 31.0745C19.2834 32.3297 17.0917 33.0147 14.8327 33.0203C14.6006 33.021 14.3686 33.0143 14.1372 33.0001C14.0067 32.9921 13.9467 33.1483 14.0592 33.2082C16.2601 34.3818 18.7758 35.0021 21.3417 34.9993C23.2362 35.017 25.1156 34.6953 26.8702 34.053C28.6247 33.4108 30.2193 32.4608 31.5607 31.2586C32.9021 30.0564 33.9634 28.6261 34.6827 27.0513C35.402 25.4764 35.7648 23.7885 35.75 22.0863V21.5558C35.75 21.5209 35.7684 21.4881 35.7994 21.467C36.634 20.9008 37.3679 20.2248 37.9768 19.4624Z" fill="black"/>
</svg>
