<svg width="52" height="52" viewBox="0 0 52 52" fill="none" xmlns="http://www.w3.org/2000/svg">
<rect x="8.5" y="8.5" width="34.92" height="34.92" rx="17.46" fill="#FFFFFE"/>
<path d="M25.3975 24.6289C26.1162 24.6289 26.7334 24.418 27.2491 23.9961C27.7725 23.5742 28.0342 22.9688 28.0342 22.1797C28.0342 21.5781 27.8272 21.0625 27.4131 20.6328C26.9991 20.1953 26.4405 19.9766 25.7373 19.9766C25.2608 19.9766 24.8662 20.043 24.5537 20.1758C24.2491 20.3086 24.0069 20.4844 23.8272 20.7031C23.6475 20.9219 23.4756 21.2031 23.3116 21.5469C23.1553 21.8906 23.0108 22.2148 22.878 22.5195C22.7998 22.6836 22.6592 22.8125 22.4561 22.9062C22.253 23 22.0186 23.0469 21.753 23.0469C21.4405 23.0469 21.1514 22.9219 20.8858 22.6719C20.628 22.4141 20.4991 22.0742 20.4991 21.6523C20.4991 21.2461 20.6202 20.8203 20.8623 20.375C21.1123 19.9219 21.4717 19.4922 21.9405 19.0859C22.417 18.6797 23.0069 18.3555 23.71 18.1133C24.4131 17.8633 25.1983 17.7383 26.0655 17.7383C26.8233 17.7383 27.5147 17.8438 28.1397 18.0547C28.7647 18.2578 29.3077 18.5547 29.7686 18.9453C30.2295 19.3359 30.5772 19.7891 30.8116 20.3047C31.0459 20.8203 31.1631 21.375 31.1631 21.9688C31.1631 22.75 30.9912 23.4219 30.6475 23.9844C30.3116 24.5391 29.8272 25.082 29.1944 25.6133C29.8037 25.9414 30.3155 26.3164 30.7295 26.7383C31.1514 27.1602 31.4678 27.6289 31.6787 28.1445C31.8897 28.6523 31.9952 29.2031 31.9952 29.7969C31.9952 30.5078 31.8506 31.1953 31.5616 31.8594C31.2803 32.5234 30.8623 33.1172 30.3077 33.6406C29.753 34.1562 29.0928 34.5625 28.3272 34.8594C27.5694 35.1484 26.7295 35.293 25.8077 35.293C24.8702 35.293 24.0303 35.125 23.2881 34.7891C22.5459 34.4531 21.9327 34.0352 21.4483 33.5352C20.9717 33.0273 20.6084 32.5039 20.3584 31.9648C20.1162 31.4258 19.9952 30.9805 19.9952 30.6289C19.9952 30.1758 20.1397 29.8125 20.4287 29.5391C20.7256 29.2578 21.0928 29.1172 21.5303 29.1172C21.7491 29.1172 21.96 29.1836 22.1631 29.3164C22.3662 29.4414 22.4991 29.5938 22.5616 29.7734C22.9678 30.8594 23.4014 31.668 23.8623 32.1992C24.3311 32.7227 24.9873 32.9844 25.8311 32.9844C26.3155 32.9844 26.7803 32.8672 27.2256 32.6328C27.6787 32.3906 28.0498 32.0352 28.3389 31.5664C28.6358 31.0977 28.7842 30.5547 28.7842 29.9375C28.7842 29.0234 28.5342 28.3086 28.0342 27.793C27.5342 27.2695 26.8389 27.0078 25.9483 27.0078C25.792 27.0078 25.5498 27.0234 25.2217 27.0547C24.8936 27.0859 24.6827 27.1016 24.5889 27.1016C24.1592 27.1016 23.8272 26.9961 23.5928 26.7852C23.3584 26.5664 23.2412 26.2656 23.2412 25.8828C23.2412 25.5078 23.3819 25.207 23.6631 24.9805C23.9444 24.7461 24.3623 24.6289 24.917 24.6289H25.3975Z" fill="#0C141C"/>
<rect x="8.5" y="8.5" width="34.92" height="34.92" rx="17.46" stroke="#0C141C" stroke-width="3"/>
</svg>
