<svg width="52" height="52" viewBox="0 0 52 52" fill="none" xmlns="http://www.w3.org/2000/svg">
<path fill-rule="evenodd" clip-rule="evenodd" d="M18 25.795C18 21.2555 21.6377 17.5755 26.125 17.5755C30.6123 17.5755 34.25 21.2555 34.25 25.795C34.25 30.3344 30.6123 34.0144 26.125 34.0144C21.6377 34.0144 18 30.3344 18 25.795ZM26.125 20.8633C23.4326 20.8633 21.25 23.0713 21.25 25.795C21.25 28.5186 23.4326 30.7266 26.125 30.7266C28.8174 30.7266 31 28.5186 31 25.795C31 23.0713 28.8174 20.8633 26.125 20.8633Z" fill="#0C141C"/>
<path fill-rule="evenodd" clip-rule="evenodd" d="M9.49242 22.828C8.58434 24.1517 8.25 25.1872 8.25 25.795C8.25 26.4028 8.58434 27.4382 9.49242 28.7619C10.3702 30.0415 11.675 31.4286 13.3258 32.7103C16.6345 35.2793 21.1708 37.3022 26.125 37.3022C31.0792 37.3022 35.6155 35.2793 38.9242 32.7103C40.575 31.4286 41.8798 30.0415 42.7576 28.7619C43.6657 27.4382 44 26.4028 44 25.795C44 25.1872 43.6657 24.1517 42.7576 22.828C41.8798 21.5484 40.575 20.1613 38.9242 18.8796C35.6155 16.3107 31.0792 14.2878 26.125 14.2878C21.1708 14.2878 16.6345 16.3107 13.3258 18.8796C11.675 20.1613 10.3702 21.5484 9.49242 22.828ZM11.347 16.2715C15.0959 13.3608 20.3096 11 26.125 11C31.9404 11 37.1541 13.3608 40.903 16.2715C42.781 17.7296 44.3319 19.3563 45.4276 20.9535C46.493 22.5066 47.25 24.2109 47.25 25.795C47.25 27.379 46.493 29.0834 45.4276 30.6364C44.3319 32.2336 42.781 33.8603 40.903 35.3185C37.1541 38.2291 31.9404 40.5899 26.125 40.5899C20.3096 40.5899 15.0959 38.2291 11.347 35.3185C9.46902 33.8603 7.91808 32.2336 6.82239 30.6364C5.75697 29.0834 5 27.379 5 25.795C5 24.2109 5.75697 22.5066 6.82239 20.9535C7.91808 19.3563 9.46902 17.7296 11.347 16.2715Z" fill="#0C141C"/>
</svg>
