<svg width="52" height="52" viewBox="0 0 52 52" fill="none" xmlns="http://www.w3.org/2000/svg">
<path d="M34.6666 15.1659C34.6666 13.9693 35.6367 12.9992 36.8333 12.9992C38.0299 12.9992 38.9999 13.9693 38.9999 15.1659C38.9999 16.3625 38.0299 17.3325 36.8333 17.3325C35.6367 17.3325 34.6666 16.3625 34.6666 15.1659Z" fill="#0C141C"/>
<path fill-rule="evenodd" clip-rule="evenodd" d="M25.9999 15.7075C20.316 15.7075 15.7083 20.3153 15.7083 25.9992C15.7083 31.6831 20.316 36.2909 25.9999 36.2909C31.6839 36.2909 36.2916 31.6831 36.2916 25.9992C36.2916 20.3153 31.6839 15.7075 25.9999 15.7075ZM18.9583 25.9992C18.9583 22.1102 22.1109 18.9575 25.9999 18.9575C29.889 18.9575 33.0416 22.1102 33.0416 25.9992C33.0416 29.8882 29.889 33.0409 25.9999 33.0409C22.1109 33.0409 18.9583 29.8882 18.9583 25.9992Z" fill="#0C141C"/>
<path fill-rule="evenodd" clip-rule="evenodd" d="M37.3928 6.1374C29.8819 5.29795 22.118 5.29795 14.6071 6.1374C10.2477 6.62464 6.72827 10.0588 6.21574 14.441C5.31757 22.1203 5.31757 29.8781 6.21574 37.5574C6.72827 41.9396 10.2477 45.3738 14.6071 45.861C22.118 46.7004 29.8819 46.7004 37.3928 45.861C41.7523 45.3738 45.2717 41.9396 45.7842 37.5574C46.6824 29.8781 46.6824 22.1203 45.7842 14.441C45.2717 10.0588 41.7523 6.62464 37.3928 6.1374ZM14.9681 9.36729C22.2391 8.55465 29.7608 8.55465 37.0318 9.36729C39.9137 9.68939 42.2223 11.9636 42.5562 14.8185C43.425 22.247 43.425 29.7514 42.5562 37.1799C42.2223 40.0349 39.9137 42.309 37.0318 42.6311C29.7608 43.4437 22.2391 43.4437 14.9681 42.6311C12.0862 42.309 9.77765 40.0349 9.44373 37.1799C8.57491 29.7514 8.57491 22.247 9.44373 14.8185C9.77765 11.9636 12.0862 9.68939 14.9681 9.36729Z" fill="#0C141C"/>
</svg>
