<svg width="52" height="52" viewBox="0 0 52 52" fill="none" xmlns="http://www.w3.org/2000/svg">
<path fill-rule="evenodd" clip-rule="evenodd" d="M31.5496 6.00003L31.5398 6H20.749L20.7392 6.00003H18.5611C17.6636 6.00003 16.9361 6.72757 16.9361 7.62503C16.9361 8.52249 17.6636 9.25003 18.5611 9.25003H19.124V20.2719C19.124 23.423 18.1763 26.5013 16.404 29.1068L9.70074 38.9612C7.9985 41.4637 9.56766 44.8787 12.5752 45.217L12.7624 45.2379L12.7991 45.2422C21.668 46.24 30.6209 46.24 39.4898 45.2422L39.527 45.2379L39.7136 45.217C42.7212 44.8787 44.2904 41.4637 42.5881 38.9612L35.8849 29.1068C34.1126 26.5013 33.1648 23.423 33.1648 20.2719V9.25003H33.7278C34.6252 9.25003 35.3528 8.52249 35.3528 7.62503C35.3528 6.72757 34.6252 6.00003 33.7278 6.00003H31.5496Z" fill="#80DFE8"/>
</svg>
