<svg width="52" height="52" viewBox="0 0 52 52" fill="none" xmlns="http://www.w3.org/2000/svg">
<path d="M18.1583 10C12.1331 10 7 14.5052 7 20.3562C7 24.3926 8.89008 27.7909 11.3951 30.6059C13.8914 33.4113 17.1121 35.766 20.0238 37.7369L25.0474 41.1374C25.5976 41.5098 26.3191 41.5098 26.8692 41.1374L31.8929 37.7369C34.8045 35.766 38.0252 33.4113 40.5216 30.6059C43.0266 27.7909 44.9167 24.3926 44.9167 20.3562C44.9167 14.5052 39.7835 10 33.7583 10C30.6525 10 27.9195 11.4563 25.9583 13.3406C23.9972 11.4563 21.2642 10 18.1583 10Z" fill="#80DFE8"/>
</svg>
