<svg width="52" height="52" viewBox="0 0 52 52" fill="none" xmlns="http://www.w3.org/2000/svg">
<path fill-rule="evenodd" clip-rule="evenodd" d="M25.5833 12C19.9115 12 14.8107 14.3045 11.1352 17.1582C9.29502 18.5869 7.78511 20.1737 6.72573 21.7179C5.68653 23.2328 5 24.8257 5 26.247C5 27.6683 5.68653 29.2612 6.72573 30.7761C7.78511 32.3203 9.29502 33.9071 11.1352 35.3358C14.8107 38.1895 19.9115 40.494 25.5833 40.494C31.2552 40.494 36.356 38.1895 40.0315 35.3358C41.8716 33.9071 43.3816 32.3203 44.4409 30.7761C45.4801 29.2612 46.1667 27.6683 46.1667 26.247C46.1667 24.8257 45.4801 23.2328 44.4409 21.7179C43.3816 20.1737 41.8716 18.5869 40.0315 17.1582C36.356 14.3045 31.2552 12 25.5833 12Z" fill="#80DFE8"/>
</svg>
