<svg width="52" height="52" viewBox="0 0 52 52" fill="none" xmlns="http://www.w3.org/2000/svg">
<path fill-rule="evenodd" clip-rule="evenodd" d="M11.1034 10.8966C6.62803 15.372 6.62804 22.628 11.1034 27.1034C14.1765 30.1765 18.5586 31.1376 22.4494 29.9936L35.0615 42.6057C36.4235 43.9678 38.6319 43.9678 39.994 42.6057L43.5172 39.0825C44.101 38.4987 44.101 37.5523 43.5172 36.9685L40.3463 33.7976L42.8126 31.3313C43.3963 30.7476 43.3963 29.8011 42.8126 29.2174L39.2893 25.6942C38.7056 25.1104 37.7591 25.1104 37.1754 25.6942L34.7091 28.1604L29.837 23.2883C31.5019 19.1558 30.6617 14.248 27.3103 10.8966C22.8349 6.42115 15.5789 6.42115 11.1034 10.8966Z" fill="#80DFE8"/>
</svg>
